<mxfile host="app.diagrams.net" agent="Mozilla/5.0 (Windows NT 10.0; Win64; x64) AppleWebKit/537.36 (KHTML, like Gecko) Chrome/131.0.0.0 Safari/537.36" version="25.0.3">
  <diagram name="Página-1" id="kcKndP4V5sOIiSxYLitJ">
    <mxGraphModel dx="819" dy="446" grid="1" gridSize="10" guides="1" tooltips="1" connect="1" arrows="1" fold="1" page="1" pageScale="1" pageWidth="827" pageHeight="1169" math="0" shadow="0">
      <root>
        <mxCell id="0" />
        <mxCell id="1" parent="0" />
        <mxCell id="CUEC2AathYNSMgdP-rtz-1" value="" style="image;html=1;image=img/lib/clip_art/people/Suit_Woman_Green_128x128.png" vertex="1" parent="1">
          <mxGeometry x="100" y="350" width="80" height="80" as="geometry" />
        </mxCell>
        <mxCell id="CUEC2AathYNSMgdP-rtz-2" value="Usuario" style="rounded=1;whiteSpace=wrap;html=1;" vertex="1" parent="1">
          <mxGeometry x="110" y="430" width="60" height="20" as="geometry" />
        </mxCell>
        <mxCell id="CUEC2AathYNSMgdP-rtz-5" value="Crea una cuenta" style="ellipse;whiteSpace=wrap;html=1;" vertex="1" parent="1">
          <mxGeometry x="340" y="360" width="120" height="80" as="geometry" />
        </mxCell>
        <mxCell id="CUEC2AathYNSMgdP-rtz-6" value="" style="endArrow=classic;html=1;rounded=0;entryX=0;entryY=0.5;entryDx=0;entryDy=0;" edge="1" parent="1" target="CUEC2AathYNSMgdP-rtz-5">
          <mxGeometry width="50" height="50" relative="1" as="geometry">
            <mxPoint x="180" y="400" as="sourcePoint" />
            <mxPoint x="230" y="350" as="targetPoint" />
          </mxGeometry>
        </mxCell>
        <mxCell id="CUEC2AathYNSMgdP-rtz-7" value="&amp;lt;&amp;lt;include&amp;gt;&amp;gt;" style="html=1;verticalAlign=bottom;endArrow=block;curved=0;rounded=0;exitX=0.799;exitY=0.096;exitDx=0;exitDy=0;exitPerimeter=0;" edge="1" parent="1" source="CUEC2AathYNSMgdP-rtz-5">
          <mxGeometry width="80" relative="1" as="geometry">
            <mxPoint x="450" y="370" as="sourcePoint" />
            <mxPoint x="490" y="280" as="targetPoint" />
          </mxGeometry>
        </mxCell>
        <mxCell id="CUEC2AathYNSMgdP-rtz-8" value="Identificacion" style="rounded=1;whiteSpace=wrap;html=1;" vertex="1" parent="1">
          <mxGeometry x="440" y="250" width="100" height="30" as="geometry" />
        </mxCell>
        <mxCell id="CUEC2AathYNSMgdP-rtz-9" value="Nombre" style="rounded=1;whiteSpace=wrap;html=1;" vertex="1" parent="1">
          <mxGeometry x="550" y="330" width="100" height="30" as="geometry" />
        </mxCell>
        <mxCell id="CUEC2AathYNSMgdP-rtz-10" value="&amp;lt;&amp;lt;include&amp;gt;&amp;gt;" style="html=1;verticalAlign=bottom;endArrow=block;curved=0;rounded=0;entryX=0;entryY=0.5;entryDx=0;entryDy=0;" edge="1" parent="1" target="CUEC2AathYNSMgdP-rtz-9">
          <mxGeometry width="80" relative="1" as="geometry">
            <mxPoint x="450" y="380" as="sourcePoint" />
            <mxPoint x="530" y="380" as="targetPoint" />
          </mxGeometry>
        </mxCell>
        <mxCell id="CUEC2AathYNSMgdP-rtz-11" value="&amp;lt;&amp;lt;include&amp;gt;&amp;gt;" style="html=1;verticalAlign=bottom;endArrow=block;curved=0;rounded=0;exitX=0.956;exitY=0.754;exitDx=0;exitDy=0;exitPerimeter=0;" edge="1" parent="1" source="CUEC2AathYNSMgdP-rtz-5">
          <mxGeometry width="80" relative="1" as="geometry">
            <mxPoint x="450" y="430" as="sourcePoint" />
            <mxPoint x="560" y="440" as="targetPoint" />
          </mxGeometry>
        </mxCell>
        <mxCell id="CUEC2AathYNSMgdP-rtz-12" value="Dirección" style="rounded=1;whiteSpace=wrap;html=1;" vertex="1" parent="1">
          <mxGeometry x="560" y="430" width="100" height="30" as="geometry" />
        </mxCell>
        <mxCell id="CUEC2AathYNSMgdP-rtz-13" value="Introducir correo electrónico" style="html=1;verticalAlign=bottom;endArrow=block;curved=0;rounded=0;entryX=0.451;entryY=0.111;entryDx=0;entryDy=0;entryPerimeter=0;" edge="1" parent="1" source="CUEC2AathYNSMgdP-rtz-5" target="CUEC2AathYNSMgdP-rtz-15">
          <mxGeometry width="80" relative="1" as="geometry">
            <mxPoint x="400" y="450" as="sourcePoint" />
            <mxPoint x="402.1428571428571" y="530" as="targetPoint" />
          </mxGeometry>
        </mxCell>
        <mxCell id="CUEC2AathYNSMgdP-rtz-15" value="Verificación de correo introducido" style="ellipse;shape=umlControl;whiteSpace=wrap;html=1;" vertex="1" parent="1">
          <mxGeometry x="370" y="520" width="70" height="80" as="geometry" />
        </mxCell>
        <mxCell id="CUEC2AathYNSMgdP-rtz-17" value="Dirección invalida" style="html=1;verticalAlign=bottom;endArrow=block;curved=0;rounded=0;exitX=0;exitY=0.5;exitDx=0;exitDy=0;exitPerimeter=0;" edge="1" parent="1" source="CUEC2AathYNSMgdP-rtz-15" target="CUEC2AathYNSMgdP-rtz-18">
          <mxGeometry width="80" relative="1" as="geometry">
            <mxPoint x="370" y="630" as="sourcePoint" />
            <mxPoint x="280" y="560" as="targetPoint" />
          </mxGeometry>
        </mxCell>
        <mxCell id="CUEC2AathYNSMgdP-rtz-18" value="mensaje &quot;Dirección de correo errónea&quot;" style="rounded=1;whiteSpace=wrap;html=1;" vertex="1" parent="1">
          <mxGeometry x="90" y="540" width="100" height="40" as="geometry" />
        </mxCell>
        <mxCell id="CUEC2AathYNSMgdP-rtz-20" value="Mostrar mensaje de error" style="html=1;verticalAlign=bottom;endArrow=block;curved=0;rounded=0;exitX=0.5;exitY=0;exitDx=0;exitDy=0;entryX=0.5;entryY=1;entryDx=0;entryDy=0;" edge="1" parent="1" source="CUEC2AathYNSMgdP-rtz-18" target="CUEC2AathYNSMgdP-rtz-2">
          <mxGeometry width="80" relative="1" as="geometry">
            <mxPoint x="400" y="680" as="sourcePoint" />
            <mxPoint x="190" y="570" as="targetPoint" />
            <Array as="points">
              <mxPoint x="140" y="480" />
            </Array>
          </mxGeometry>
        </mxCell>
        <mxCell id="CUEC2AathYNSMgdP-rtz-21" value="Dirección de correo correcta" style="html=1;verticalAlign=bottom;endArrow=block;curved=0;rounded=0;exitX=0.435;exitY=1.011;exitDx=0;exitDy=0;exitPerimeter=0;entryX=1;entryY=0.5;entryDx=0;entryDy=0;" edge="1" parent="1" source="CUEC2AathYNSMgdP-rtz-15" target="CUEC2AathYNSMgdP-rtz-22">
          <mxGeometry x="0.0002" width="80" relative="1" as="geometry">
            <mxPoint x="400" y="610" as="sourcePoint" />
            <mxPoint x="400" y="690" as="targetPoint" />
            <Array as="points">
              <mxPoint x="400" y="675" />
            </Array>
            <mxPoint as="offset" />
          </mxGeometry>
        </mxCell>
        <mxCell id="CUEC2AathYNSMgdP-rtz-22" value="mensaje &quot;direccion de correo agregada satisfactoriamente&quot;" style="rounded=1;whiteSpace=wrap;html=1;" vertex="1" parent="1">
          <mxGeometry x="85" y="650" width="110" height="50" as="geometry" />
        </mxCell>
        <mxCell id="CUEC2AathYNSMgdP-rtz-23" value="Dirección de correo agregada" style="html=1;verticalAlign=bottom;endArrow=block;curved=0;rounded=0;" edge="1" parent="1">
          <mxGeometry x="-1" y="-58" width="80" relative="1" as="geometry">
            <mxPoint x="80" y="680" as="sourcePoint" />
            <mxPoint x="110" y="440" as="targetPoint" />
            <Array as="points">
              <mxPoint x="40" y="680" />
              <mxPoint x="40" y="440" />
            </Array>
            <mxPoint x="30" y="8" as="offset" />
          </mxGeometry>
        </mxCell>
      </root>
    </mxGraphModel>
  </diagram>
</mxfile>
